<svg id="Layer_1" data-name="Layer 1" xmlns="http://www.w3.org/2000/svg" viewBox="0 0 242 114"><defs><style>.cls-1{font-size:15.41px;font-family:OstrichSans-Heavy, Ostrich Sans;font-weight:800;letter-spacing:0.2em;}.cls-1,.cls-4{fill:#333;}.cls-2{letter-spacing:0.16em;}.cls-3,.cls-5{fill:none;stroke-miterlimit:10;}.cls-3{stroke:#231f20;stroke-width:0.25px;}.cls-5{stroke:#333;stroke-width:0.75px;}</style></defs><title>Blankon Clothing</title><text class="cls-1" transform="translate(91.78 62.23)">BL<tspan class="cls-2" x="17.27" y="0">A</tspan><tspan x="26.56" y="0">NKON</tspan></text><path class="cls-3" d="M165.77,57A44.77,44.77,0,0,1,121,101.77a17.9,17.9,0,0,1-17.91-17.92,8.84,8.84,0,0,0-1.79-5.36,9.48,9.48,0,0,0-1.78-1.8,9,9,0,0,0-5.38-1.79A17.87,17.87,0,0,1,78.68,66a17.66,17.66,0,0,1-2.45-9,44.77,44.77,0,0,1,89.54,0Z"/><path class="cls-4" d="M121,101.77a44.78,44.78,0,0,1-9-.9,44.31,44.31,0,0,1-17.9-8.06h0A44.73,44.73,0,0,1,77.13,66a45,45,0,0,1-.9-9,17.69,17.69,0,0,0,2.45,9,17.87,17.87,0,0,0,15.46,8.87,9,9,0,0,1,5.38,1.79,9.73,9.73,0,0,1,1.78,1.79,8.87,8.87,0,0,1,1.79,5.37A17.9,17.9,0,0,0,121,101.77Z"/><circle class="cls-5" cx="121" cy="57" r="44.77" transform="translate(-12.39 47.18) rotate(-21.01)"/></svg>