<svg xmlns="http://www.w3.org/2000/svg" viewBox="0 0 242 114"><defs><style>.cls-1{fill:#333;}</style></defs><title>Kroku Project</title><g id="Layer_1" data-name="Layer 1"><path class="cls-1" d="M68.78,58.42a42.07,42.07,0,0,1,2.62-3.68,10.9,10.9,0,0,1,2.91-2.43c3.14-1.65,6.13.2,6.17,3.74S79,62.58,77.42,65.57c-.33.61-.7,1.2-1.09,1.87a61.15,61.15,0,0,0,5.18,4.35c3.74,2.55,9,2.27,10.41-4,.54-2.48.11-5.18,0-7.78,0-.38-.78-.82-1.28-1.06a23.46,23.46,0,0,1-3.31-1.44,4.78,4.78,0,0,1,.09-7.77,2.74,2.74,0,0,1,3.67.31c1.3,1.22,2.47,2.59,3.79,4a8.7,8.7,0,0,0,3.49-4.89c.31-1.44,1-2.47,2.58-2.17s1.71,1.45,1.68,2.81c-.11,5.59-.17,11.19,1.36,16.64A20.19,20.19,0,0,0,106.06,71a2.91,2.91,0,0,0,4.08,1.11c1.57-.87,2.07-1.76,1.49-3.84-1.92-6.84-1.86-13.58,2.34-19.73,1.7-2.48,4-4.07,7.14-3.9,2.49.13,3.85,2,4.87,3.81,3.22,5.79,4.45,12,2.72,18.5-1,4-3.19,7.05-7.38,8.31a5.93,5.93,0,0,1-5.76-1c-1.79,1-3.31,2.16-5,2.62-3.79,1-6.34-1.15-8.3-4.06-2.51-3.74-3.08-8.09-3.56-12.44-.13-1.15-.19-2.3-.29-3.52-2.51,1.49-2.48,1.48-2.07,4.38.55,3.83.34,7.55-1.7,11a10.4,10.4,0,0,1-15.07,3.24c-1.94-1.36-3.68-3-6-4.38,0,.56-.22,1.28,0,1.66a37.1,37.1,0,0,0,3.38,4.11c.84.86,1.9,1.6,1.18,2.91S76,80.91,75,80.36a11.47,11.47,0,0,1-3.64-3.09C68,72.43,66.44,66.8,65.14,61.12c-.69-3-1.18-6-1.78-9.15-7.08-.41-8.63-5.65-9.64-11.26a27.24,27.24,0,0,1,.19-12.28,9.05,9.05,0,0,1,4-5.35,5.91,5.91,0,0,1,3.57-.32c.37,0,.85,1.2.84,1.84s-.56,1.52-1,1.61c-2.54.51-3.09,2.78-3.48,4.54A24.09,24.09,0,0,0,59.3,45.1a3.8,3.8,0,0,0,3.64,2.53c0-.86,0-1.7,0-2.54-.12-6.06-.25-12.15,1.73-18a19.72,19.72,0,0,1,3.13-5.75c2.47-3.14,5.94-2.48,7.45,1.24,1.22,3,.89,6.08.61,9.14-.44,4.76-1.21,9.51-3.56,13.74-1,1.73-2.56,3.09-3.85,4.63-.31.36-.86.79-.82,1.13C67.92,53.52,68.34,55.79,68.78,58.42Zm46.52,8,.73.18c1.31-2.87,2.78-5.69,3.89-8.64a42.88,42.88,0,0,0,1.8-7,2.17,2.17,0,0,0-1-1.75,1.94,1.94,0,0,0-1.86.28c-1.26,1.4-2.78,2.8-3.38,4.49C114.06,58,114.53,62.22,115.3,66.38ZM71.14,24c-3.19,3-5.44,16-3.7,21.3C70.81,41.4,73.17,27.82,71.14,24Zm47.1,46.9c1,.79,3.17.37,4.55-1.17,2.2-2.44,3.24-9.26,2-11.9C122.75,62,120.54,66.37,118.24,70.92Zm-42-15.08C72.94,58.7,71.68,62.11,71.15,66,73.26,65.56,76.24,59.7,76.21,55.84Zm-3.12,1.5c-.08-.09-.26-.5-.5-.53s-.91,0-1,.27c-.78,1.33-1.49,2.71-2.14,4.12-.1.23.17.78.42,1a.92.92,0,0,0,.9-.09C71.53,60.6,72.25,59.05,73.09,57.34Zm53-5.87-3.52.6,2.19,3.53ZM61.3,24.36c-.79-.51-1.41-1.14-1.64-1a6.34,6.34,0,0,0-1.44,1.44c.42.3.9.9,1.23.83C60,25.49,60.49,24.94,61.3,24.36ZM76.11,54.61c-1-.68-1.49-1.16-1.56-1.09a8.76,8.76,0,0,0-1.66,1.78c-.09.13.69,1,.74,1C74.39,55.87,75.09,55.34,76.11,54.61Zm1.63,24.17c-.83-.59-1.3-1.18-1.75-1.16s-.92.62-1.38,1c.45.44.83,1.1,1.36,1.24C76.34,79.92,76.89,79.31,77.74,78.78Zm23.87-28.27c-.63-.56-1.13-1.17-1.26-1.1a3.32,3.32,0,0,0-1.24,1.2c-.08.13.6,1,.84,1C100.44,51.47,100.87,51,101.61,50.51Z"/><path class="cls-1" d="M171.09,75.14c-6.1,4.14-8.64,3.88-12.79-1.33-3.32,3.23-5.79,2.9-8.57-.76s-6-7.39-9.06-11.07a2.32,2.32,0,0,0-.52-.4l-.54.21c.91,3,1.81,6,2.76,9a20.26,20.26,0,0,0,.89,1.89,2,2,0,0,1-.85,2.84,1.89,1.89,0,0,1-2.8-.92,72.65,72.65,0,0,1-2.82-7.12c-1.95-6.06-2-12.36-2-18.64V46.92a18.77,18.77,0,0,1-3,0A6.6,6.6,0,0,1,126,41,28.66,28.66,0,0,1,127.43,26a18.74,18.74,0,0,1,4.17-5.66,5.64,5.64,0,0,1,3.64-1.21c.63,0,1.68,1.1,1.81,1.83a2.49,2.49,0,0,1-1.3,2.08c-2.27.32-3.4,1.91-4.12,3.63a25,25,0,0,0-1.42,13.87,2.91,2.91,0,0,0,4.2,2c.58-.34.8-1.55.88-2.4a59.92,59.92,0,0,1,3.55-16.31,22.21,22.21,0,0,1,2.52-4.74c1.3-1.86,3.14-3,5.56-2.38,2,.49,3.23,2.42,3.44,5.15a20.82,20.82,0,0,1-1.63,9.54c-2.07,5-4.64,9.76-8.93,13.34a1.71,1.71,0,0,0-.64,1c-.14,1.54-.18,3.08-.25,4.43,2.29-1,4.42-2.18,6.66-3a6,6,0,0,1,3.58-.05,3.8,3.8,0,0,1,1.62,6.07,82.34,82.34,0,0,1-6.52,6.61c2.85,3.3,6,7,9.27,10.67.76.86,1.39.69,2-.39,1.89-3.51,2.4-7.39,3.23-11.18.4-1.82.76-3.64,1.16-5.45.31-1.36,1.05-2.28,2.57-2s1.81,1.36,1.57,2.66c-.64,3.54-1.46,7.06-1.94,10.62a23,23,0,0,0,0,6.52c.37,2.33,2.47,3,4.54,1.77a12.61,12.61,0,0,0,5.74-8.59c.52-2.49.64-5.08,1.19-7.56a3.09,3.09,0,0,1,1.85-1.89c1.1-.35,2,.4,2.26,1.6.69,2.7.15,5.28-.55,7.91-.78,3-1.34,6-1.94,9a4.3,4.3,0,0,0,.06,2.08,5.28,5.28,0,0,0,1.29,2.3c.22.21,1.24-.44,2-.74a1.89,1.89,0,0,1,.34,3,3.92,3.92,0,0,1-6.36-.9A34.39,34.39,0,0,1,171.09,75.14ZM145.68,20.91c-4.24,5.12-5,11.39-5.81,17.66C143.59,33.28,147,27.87,145.68,20.91Zm-5.61,35.4a13.94,13.94,0,0,0,7.17-5.23C143.74,51.67,141.71,53.72,140.07,56.31Zm-1.3-1.85.55.09a28.16,28.16,0,0,0,2.3-2.2c.25-.28.14-.87.19-1.32-.42,0-1-.15-1.22,0a8.87,8.87,0,0,0-1.91,2C138.47,53.35,138.73,54,138.77,54.46ZM143,73.55l-1.89-2c-.34.38-1,.9-.94,1.12a6.17,6.17,0,0,0,1.33,1.86A11.92,11.92,0,0,0,143,73.55Zm.46-22.27,2-1.76c-.33-.27-.81-.83-1-.75a8,8,0,0,0-1.8,1.33A8.31,8.31,0,0,0,143.41,51.28Zm-7.35-30.17c-.84-.54-1.38-1.14-1.67-1-.54.2-.93.8-1.38,1.23.43.31.87.85,1.3.85S135.23,21.64,136.06,21.11ZM176.58,81l1.34-1.33c-.38-.34-.88-1-1.12-.94a5.33,5.33,0,0,0-1.48,1.16Z"/><path class="cls-1" d="M164.9,47.76c-6.09,1.8-10.12-.77-11-6.86a5.35,5.35,0,0,0-.7-1.88c-2.26-3.92-2.25-7.78.38-10.48a7.53,7.53,0,0,1,3.7-2,2.46,2.46,0,0,0,2.19-2,7.73,7.73,0,0,1,4.87-5.7,7,7,0,0,1,6.78.78,3,3,0,0,0,2.52.59c5.4-1,9.64,2.24,10.33,7.69a8.46,8.46,0,0,0,1,3,12.83,12.83,0,0,1-1.43,14.67c-1.06,1.23-2.44,1.39-3.94,1.38a2.43,2.43,0,0,0-1.72.65C174.21,52.29,168.62,52.43,164.9,47.76Zm11.89-1.28c-2.23-1.21-3.71-3.48-3.27-5.5a3.8,3.8,0,0,1,1.74-2.33c.5-.24,1.72.42,2.3,1,1.6,1.59,1.55,3.72,1.38,5.75a3.56,3.56,0,0,0,4.42-2c2.43-4.43,2.58-8.42.22-11.7-2.87,2.88-4,3.19-5.94,1.63-1.46-1.17-2-3.36-1.18-4.68,1-1.63,3-1.77,6-.41.3-3.74-3.81-8.53-9-6.38a6.53,6.53,0,0,1,.93,5.66c-.48,1.74-1.66,2.69-3.07,2.58s-2.54-1.3-2.81-3.07a7.11,7.11,0,0,1,2.2-6.07c-4.29-3.09-9.1-.56-10.18,5.22,3.69,1.77,4.09,2.93,1.33,5.7l3.38,2.4-.28.67a4.22,4.22,0,0,1-1.69-.13,28.6,28.6,0,0,1-3-2.06,1,1,0,0,1-.41-.52c-.42-1.48-.8-3-1.2-4.5a4.75,4.75,0,0,0-4.79,2.67,6,6,0,0,0,.34,6.93c1.94-2.77,3.16-3.44,5-2.7,1.22.5,2.18,1.33,1.91,2.75A4.12,4.12,0,0,1,159.84,40a20.66,20.66,0,0,1-4.29,1.5,5.81,5.81,0,0,0,8.41,5c-.11-1.16-.55-2.34-.24-3.29a4.6,4.6,0,0,1,2.14-2.4,2.47,2.47,0,0,1,2.37.61,4.21,4.21,0,0,1,.09,3,13,13,0,0,1-2,2.87,4.86,4.86,0,0,0,5.07,2.48C173.69,49.48,175.72,48.77,176.79,46.48ZM171.9,22.23A4.42,4.42,0,0,0,170,27.31a2.34,2.34,0,0,0,1.49,1.35c.4.07,1.2-.65,1.41-1.18A4.83,4.83,0,0,0,171.9,22.23Zm11,7.75a27.85,27.85,0,0,0-4-1.19,1.21,1.21,0,0,0-1.35,1.69,4.26,4.26,0,0,0,1.93,2.21c.52.22,1.54-.57,2.24-1C182.09,31.38,182.3,30.83,182.91,30Zm-26.32,9.78c1.81,0,3.35-1.28,3.09-2.46a2.45,2.45,0,0,0-1.59-1.43c-1.06-.26-2.62,1.47-2.49,2.8C155.64,39.16,156.41,39.57,156.59,39.76Zm19.09.17c-1.54,1.7-.69,4.27,1.67,5C178,42.67,177.42,41,175.68,39.93Zm-10,6a30.31,30.31,0,0,0,1.65-2.7,1.33,1.33,0,0,0-.37-1.16c-.19-.17-.79-.09-1.09.07C164.76,42.76,164.66,44,165.72,45.94Zm-5.09-18.41-.74.66a19.38,19.38,0,0,0,1.48,1.64c.08.08.59-.31.89-.48Z"/><path class="cls-1" d="M87.17,19.41c-.81,4.85-1.59,9.2-2.27,13.56-.49,3.1-.86,6.22-1.27,9.33-.2,1.54,0,3.22-.65,4.57-.48,1.06-1.86,1.71-2.9,2.48a2.7,2.7,0,0,1-.93-1A9,9,0,0,1,78.79,43q1.89-11.18,3.85-22.33c.32-1.79,1.23-2.5,3-2.28C86.27,18.48,86.8,19.15,87.17,19.41ZM80.49,43.55l.59.37a5.62,5.62,0,0,0,.79-1.59c.47-3.1.79-6.23,1.27-9.33.66-4.23,1.41-8.45,2.12-12.67l-.63-.12A224.84,224.84,0,0,0,80.49,43.55Z"/><path class="cls-1" d="M90.77,92.59l1.68.9-1.63-6.61L88.21,90c-.12-.21-.36-.42-.32-.57.64-2.76,1.85-5.17,4.64-6.31s5.48,1,5.77,4.26A7,7,0,0,1,95.44,94a1.74,1.74,0,0,0-.6,1.49c.53,1.64,1.29,3.2,1.88,4.83a5,5,0,0,1,0,1.5c-.49-.2-1.24-.26-1.41-.61-.83-1.65-1.46-3.4-2.24-5.07a6.65,6.65,0,0,0-1.18-1.44c-.51-.56-1.06-1.1-1.59-1.65Zm3.24.15c2.64-2.12,3.34-5.12,1.87-6.95a2.57,2.57,0,0,0-1.77-.67,1.37,1.37,0,0,0-.94,1C93.35,88.23,93.68,90.32,94,92.74Z"/><path class="cls-1" d="M185,58.83s-.43.06-.87.17c-2.83.7-4.69-.4-5.26-3.22a6.68,6.68,0,0,1,1.91-6.39c1.35-1.3,3.16-1.27,4.91-.71a6.53,6.53,0,0,1,4.56,5.94C190.26,57,188.18,58.85,185,58.83Zm-2.17-1.15c-.27-1.26-1.76-2.5-.37-3.76a2.5,2.5,0,0,1,2.17-.5c1.62.71,1.89,2.3,1.78,4,2-.72,2.81-2,2.31-3.85A5.29,5.29,0,0,0,183,49.84c-1.69.25-3,2.57-2.82,5C180.28,56.93,181,57.64,182.84,57.68Z"/><path class="cls-1" d="M120.63,91.11a13,13,0,0,1-2.91,7.63c-.8,1-1.84,1.78-3.17,1.16a2.85,2.85,0,0,1-1.72-3.42c.49-2.59,1.85-4.41,4.43-5,1.23-.29,1.51-.88,1.29-1.94s-.43-2-.74-3c-.1-.31-.56-.5-.85-.74-.18.25-.31.57-.55.72a9.6,9.6,0,0,1-1.37.66c-.13-.54-.54-1.37-.33-1.58A4.22,4.22,0,0,1,117,84.08a2.67,2.67,0,0,1,2.12,1.35A49.28,49.28,0,0,1,120.63,91.11Zm-1.84,2.12A3.86,3.86,0,0,0,114.7,96c-.3,1-.46,1.92,1.24,2.52Z"/><path class="cls-1" d="M63.7,62.15c-.22,2.19-.56,3.92-2.39,4.91a3.34,3.34,0,0,1-4.16-.53,17.36,17.36,0,0,1-2.5-2c-1-1.38-1.6-3-.64-4.72s2.35-3.31,4.41-3.29S62,58,63,59.84A11.61,11.61,0,0,1,63.7,62.15Zm-7.61,1.94c.62-1.43,1.45-2.8,2.87-1.94,1.8,1.09.53,2.56-.38,3.87a2.56,2.56,0,0,0,3.33-1.7,4.55,4.55,0,0,0-3.17-6.27c-.89-.22-2.41,1.1-3.26,2.05C54.38,61.32,55,62.69,56.09,64.09Z"/><path class="cls-1" d="M142.65,84.91l2.46,1.24-2.48,1.38-.53-.26a20.21,20.21,0,0,0,.28,3.83,1.92,1.92,0,0,0,2.81,1.44c.52-.18,1.23.17,1.85.28-.48.46-.88,1.15-1.44,1.33-2.94,1-5.4-1.13-5.29-4.54,0-1.46.63-3-1.4-3.66-.19-.06-.38-.85-.24-1a1.67,1.67,0,0,1,1.14-.4c.29,0,.57.33.94.57.68-2,1.37-3.88,1.93-5.8.13-.48-.33-1.1-.26-1.62a4.53,4.53,0,0,1,.74-1.38c.4.27,1.08.48,1.15.82a5.63,5.63,0,0,1,.07,2.61C143.89,81.58,143.19,83.34,142.65,84.91Z"/><path class="cls-1" d="M123.77,88.91c.23,1.21,1.41,1.85,3.35,1.65a12.55,12.55,0,0,1,2.64.25c-.19,1.67-1.68,1.26-2.58,1.39-1.68.25-3.43,0-4.58-1.46s-.81-3.36-.3-5,4.32-2.69,5.83-1.8a2,2,0,0,1,.09,3.45A25.59,25.59,0,0,1,123.77,88.91Zm.49-2.92.32,1,2.81-1-.26-.77Z"/><path class="cls-1" d="M59.62,78.87c-2.25,0-3.82-1.4-3.83-3.39A5.14,5.14,0,0,1,60.69,70c2.16,0,3.71,1.85,3.68,4.42A4.77,4.77,0,0,1,59.62,78.87Zm3-5.61c-1.86,1-3,.24-3.66-1.43-1.7,1.74-2.31,3.76-1.42,4.78a2.86,2.86,0,0,0,3.5.58A3.19,3.19,0,0,0,62.63,73.26Z"/><path class="cls-1" d="M106,88.67a15.53,15.53,0,0,1,.36-1.88c.42-1.38,1.4-2.54,2.82-2.38a7.25,7.25,0,0,1,4.07,1.7c.54.54.06,2.33-.3,3.46a5.25,5.25,0,0,1-1.62,2c-1,.92-2.18,1.67-3.6,1S106,90.48,106,88.67Zm1.5.27c.34.68.52,1.63,1.06,2,.35.2,1.29-.45,1.87-.85a4.23,4.23,0,0,0,1-1.17c1-1.46.74-2.06-1-2.52C108.6,85.84,107.82,86.55,107.5,88.94Z"/><path class="cls-1" d="M134.61,92.67c-2.21-.25-3.59-1.33-3.37-3.39A11.92,11.92,0,0,1,133,84.53a2.72,2.72,0,0,1,3.89-.5c.29.28.28.87.41,1.32-.4.1-1,.41-1.18.25-1-.72-1.65-.36-2.2.44-.86,1.23-1.54,2.67-.67,4,.31.49,1.63.41,2.49.43.41,0,.82-.43,1.26-.51a5,5,0,0,1,1.33.05c-.12.44-.11,1.15-.38,1.29A32.89,32.89,0,0,1,134.61,92.67Z"/><path class="cls-1" d="M159,80.52c-.88,3.39-1.63,6.34-2.42,9.29-.28,1-1,1.06-1.92.84a1.56,1.56,0,0,1-1.35-1.88c.36-2.88.73-5.76,1.34-8.6.14-.68,1.42-1.76,1.8-1.62A9.81,9.81,0,0,1,159,80.52Zm-3.87,9.27.59-.26c.61-2.71,1.26-5.41,1.76-8.13.08-.43-.56-1-.87-1.49-.31.35-.83.66-.91,1q-.69,3.81-1.19,7.64C154.5,89,154.94,89.39,155.16,89.79Z"/><path class="cls-1" d="M101.89,88.87a29.41,29.41,0,0,1,.53,3.07c0,.42-.35.87-.54,1.31-.38-.27-1.06-.48-1.11-.8-.34-2.11-.55-4.25-.78-6.38,0-.19.15-.56.26-.58,1.54-.18,3.08-.38,4.63-.42.25,0,.52.74.78,1.13-.43.16-.88.5-1.28.44C102.49,86.35,102,86.75,101.89,88.87Z"/><path class="cls-1" d="M69.66,79.57C69.68,81.2,69,82,67.45,82a2.6,2.6,0,0,1-2.8-2.62c0-1.58,1.27-1.8,2.4-2A2.35,2.35,0,0,1,69.66,79.57Zm-3.52-.75-.36.89a21,21,0,0,0,2,.84,10.25,10.25,0,0,0,.49-1.06Z"/><path class="cls-1" d="M52.8,26.05c-1.34-1.79.72-5.3,3.82-6.73.73.85,1.51,1.47-.15,2.42a12.31,12.31,0,0,0-2.71,2.89A13.49,13.49,0,0,0,52.8,26.05Z"/><path class="cls-1" d="M156.41,12.34c.82,2.26,1.67,4.51,2.43,6.79.11.32-.19.79-.3,1.18-.4-.22-1-.36-1.16-.69-.78-1.92-1.5-3.88-2.09-5.87-.13-.41.34-1,.53-1.52Z"/><path class="cls-1" d="M154.85,17.59c1,2,2.09,3.93,3.05,5.95.14.3-.25.86-.39,1.29-.32-.16-.77-.25-.94-.51a52.07,52.07,0,0,1-2.85-4.9c-.21-.44.31-1.24.49-1.87Z"/><path class="cls-1" d="M116.66,39.24a5.83,5.83,0,0,1-.1-1.8c.42-1.6,1-3.16,1.46-4.65,1.35,1.41,1.18,3.22-.76,6.38Z"/><path class="cls-1" d="M52,21.53c-.1-.48-.44-1.13-.25-1.41a15.88,15.88,0,0,1,2.3-2.55c.17-.14.83.27,1.26.43l-2.69,3.69Z"/><path class="cls-1" d="M152.22,93.25c.78-.77,1.18-1.51,1.71-1.61.89-.17,1.87.3,1.64,1.4a2.53,2.53,0,0,1-1.41,1.66C153.79,94.82,153.08,93.93,152.22,93.25Z"/><path class="cls-1" d="M90.56,36.4c1,1.19.64,2.26-1.92,4.93a2.33,2.33,0,0,1,.8-3.31C90,37.75,90.21,36.94,90.56,36.4Z"/><path class="cls-1" d="M99.79,28.85h2.1l-.74,4.31-.69.05Z"/><path class="cls-1" d="M108.75,23.39c-1.46-1.25-1.54-2.23-.39-2.88.44-.25,1.28.21,1.94.35Z"/><path class="cls-1" d="M79.93,83.22c-.58-.89-1.23-1.49-1.11-1.79a6.37,6.37,0,0,1,1.37-1.65c.43.43,1.27.94,1.21,1.28C81.27,81.7,80.64,82.25,79.93,83.22Z"/><path class="cls-1" d="M184.11,76.44c-.92.61-1.48,1.24-2.05,1.25-.4,0-1.23-1-1.14-1.27a2.3,2.3,0,0,1,1.42-1.36C182.73,75,183.29,75.76,184.11,76.44Z"/><path class="cls-1" d="M89.42,24.71c1.68,3.76,1.55,4.47-.76,4.3Z"/><path class="cls-1" d="M118.2,81.2c-.85.65-1.38,1.36-1.82,1.3s-1.24-.89-1.18-1.26a2.2,2.2,0,0,1,1.31-1.39C116.8,79.75,117.4,80.53,118.2,81.2Z"/><path class="cls-1" d="M120.39,20.93l-1.19-2.87.53-.54c.62.45,1.57.8,1.76,1.4s-.31,1.47-.52,2.22Z"/><path class="cls-1" d="M107.3,37.58c.67,1.45,2.11,2.71,0,3.92C106.1,40.06,106.08,39.05,107.3,37.58Z"/><path class="cls-1" d="M99.17,33.13c2.43,1.73.71,3.25.52,4.75h-.52Z"/><path class="cls-1" d="M93.22,27.88l-.57,3.7c-.67-.55-1.43-.88-1.43-1.22C91.23,29.25,91.25,28,93.22,27.88Z"/><path class="cls-1" d="M62.47,22.92l1.58-1.48c.35.43,1,.92,1,1.3-.09.54-.71,1-1.09,1.5Z"/><path class="cls-1" d="M98.34,27.87c-2.73-1.46-1.32-2.94-1.08-4.3l.51-.06Z"/><path class="cls-1" d="M119,32.55l-.43-4c2.11.9,2.12,1,.9,4Z"/><path class="cls-1" d="M100.19,19.66,99,23.54C97.49,21.66,97.77,20.5,100.19,19.66Z"/><path class="cls-1" d="M111.18,23c.19,1.43.77,3-1.81,3.81l1.23-4Z"/><path class="cls-1" d="M107.67,26.91c-2.12-1.18-2.14-1.39-.33-3.93Z"/><path class="cls-1" d="M108.93,30l1.75-2.9c.69,2.51.47,2.94-1.26,3.27Z"/><path class="cls-1" d="M105.26,30l.16-2.66.59-.27c.34.6.95,1.2.95,1.8s-.71,1-1.1,1.57Z"/><path class="cls-1" d="M91.11,35.47,90.56,32l2,.28-.65,3.08Z"/><path class="cls-1" d="M108.09,34.45c3,1.16.9,2.62,1.15,3.82l-.62.08Z"/><path class="cls-1" d="M121.49,24.92l-.78,3.27C119.33,27.84,119,27,119.55,26,119.79,25.57,120.55,25.42,121.49,24.92Z"/><path class="cls-1" d="M90.57,24.59a7.51,7.51,0,0,1,.59-2.35c.26-.41,1.15-.41,1.75-.59l.26.51-2.1,2.57Z"/><path class="cls-1" d="M137.41,19.41,138.87,18c.31.42.93,1,.84,1.23-.19.56-.78,1-1.2,1.47Z"/><path class="cls-1" d="M100.87,20.49c1.26,3,1.2,3.32-.93,4.35Z"/><path class="cls-1" d="M110.74,31.45l-.52,2.77-.52.13c-.29-.65-.86-1.33-.79-1.94s.86-.9,1.33-1.34Z"/><path class="cls-1" d="M97.91,31.65l-1.24,3.2C95.57,32.06,95.64,31.86,97.91,31.65Z"/><path class="cls-1" d="M83.84,46.28,85.3,43c1.24,1.94,1.14,2.2-1,3.47Z"/><path class="cls-1" d="M88.58,32.86V30.31l1.4-.09C90.8,31.09,90,32.49,88.58,32.86Z"/><path class="cls-1" d="M115.72,25.86l.56-2.8.48-.13,1.11,2.93Z"/><path class="cls-1" d="M118.45,19.12l-.19,3.79C116.52,21.36,116.52,21.13,118.45,19.12Z"/><path class="cls-1" d="M121.82,21.86c-.39.87.69,2.76-2.26,2.23l1.71-2.64Z"/><path class="cls-1" d="M98.22,38.51c.53,1.16,1.85,2,.51,3.52C98.3,40.85,96.45,40.11,98.22,38.51Z"/><path class="cls-1" d="M115.62,27.11h2l-1.41,2.64-.57-.19Z"/><path class="cls-1" d="M93.42,23.94c.12,1.4.4,2.74-1.58,3.09C91.4,25.53,92,24.59,93.42,23.94Z"/><path class="cls-1" d="M96.66,27.77,98,30.27l-2.15.58.36-3Z"/><path class="cls-1" d="M105.31,33.42c.09-1-.66-2.43,2-2.2l-1.36,2.55Z"/><path class="cls-1" d="M106.39,37.6c-1.23-2.21-1.12-2.63,1-3.65Z"/><path class="cls-1" d="M101.67,43.9c-2.15-.33-2.32-.6-1.37-2.18l1.75.75Z"/><path class="cls-1" d="M97.91,35.18c-.16,1,.68,2.43-1.59,3.09l1-3.23Z"/><path class="cls-1" d="M90.6,45.18l.92-1.68c.51.23,1.1.33,1.36.68a1.68,1.68,0,0,1-.12,1.2A14.11,14.11,0,0,1,90.6,45.18Z"/><path class="cls-1" d="M101.89,25.46v2.43l-1.57-.64.93-2.07Z"/><path class="cls-1" d="M90.1,33.74,89,37C88,34.87,88.23,34.22,90.1,33.74Z"/><path class="cls-1" d="M108.18,42.4l1.41-1.77.89,2.61-.56.27Z"/><path class="cls-1" d="M95,42.64c1.47,2.09.33,2.49-1.37,3Z"/><path class="cls-1" d="M173.17,34.71a8.68,8.68,0,0,1-.56,1.54c-.43.84-1.35,1.52-.29,2.58a1.46,1.46,0,0,1-.34,1.32,5,5,0,0,1-2.29.25c-.35,0-1-.77-.89-1,.37-1.2-.37-1.75-1.06-2.47a3,3,0,0,1-.55-3.83,5.48,5.48,0,0,1,3.32-1.75C172.11,31.09,173.19,32.48,173.17,34.71Zm-2.53,3a7.36,7.36,0,0,0,1.13-2.11c.2-.92.26-2.33-.27-2.8s-2-.31-2.8.05c-1.18.49-1.21,2.32-.12,3.43A13.13,13.13,0,0,0,170.64,37.74Z"/><path class="cls-1" d="M163.5,23.26c.16.3.33.59.48.89.53,1,1.09,2,1.56,3.07a1.27,1.27,0,0,1-.14,1,.94.94,0,0,1-.89,0A21.88,21.88,0,0,1,162.33,25c-.18-.37.33-1.07.52-1.62Z"/></g></svg>