<svg xmlns="http://www.w3.org/2000/svg" viewBox="0 0 242 114"><defs><style>.cls-1{font-size:15px;fill:#333;font-family:Montserrat-Bold, Montserrat;font-weight:700;}.cls-2{letter-spacing:-0.01em;}.cls-3{letter-spacing:-0.02em;}.cls-4{letter-spacing:0.01em;}.cls-5{letter-spacing:-0.01em;}.cls-6{letter-spacing:0.01em;}.cls-7{letter-spacing:-0.01em;}.cls-8{fill:#a7a9ac;}.cls-9{fill:#d1d3d4;}.cls-10{fill:#e6e7e8;}</style></defs><title>SDA</title><g id="Layer_1" data-name="Layer 1"><text class="cls-1" transform="translate(109.18 43.37)"><tspan class="cls-2">S</tspan><tspan class="cls-3" x="9.42" y="0">y</tspan><tspan x="18.12" y="0">a</tspan><tspan class="cls-4" x="27.38" y="0">n</tspan><tspan x="37.83" y="0">dana</tspan><tspan x="0" y="18">Design</tspan><tspan class="cls-5" x="0" y="36">A</tspan><tspan x="11.42" y="36">ge</tspan><tspan class="cls-6" x="31.38" y="36">n</tspan><tspan class="cls-7" x="41.83" y="36">c</tspan><tspan x="50.58" y="36">y</tspan></text><path class="cls-8" d="M89.27,60.45V71.18A14.19,14.19,0,0,1,75.09,85.26V71.37A14.22,14.22,0,0,0,89.18,58.86C89.23,59.38,89.27,59.91,89.27,60.45Z"/><path class="cls-8" d="M55.74,71.18V92.93H69.91V85.26A14.12,14.12,0,0,1,55.74,71.18Z"/><path class="cls-9" d="M69.91,63.9V85.26A14.12,14.12,0,0,1,55.74,71.18V63.9Z"/><path class="cls-10" d="M69.91,21.07V60.16A14.29,14.29,0,0,1,55.74,45.89V35.16A14.16,14.16,0,0,1,66.51,21.49l.6-.13c.21-.05.43-.09.64-.12l.32,0A14.1,14.1,0,0,1,69.91,21.07Z"/><path class="cls-9" d="M89.18,58.86A14.22,14.22,0,0,1,75.09,71.37V46.17A14.29,14.29,0,0,1,89.18,58.86Z"/><path class="cls-9" d="M69.92,46.26v13.9h0a14.19,14.19,0,0,1-12.14-6.95,14.2,14.2,0,0,1,12.14-7Z"/><path class="cls-10" d="M89.27,35.16V57.29a13.64,13.64,0,0,1-.09,1.57A14.29,14.29,0,0,0,75.09,46.17V21.07a13.55,13.55,0,0,1,1.43.08l.34,0,.33.05A14.11,14.11,0,0,1,89.27,35.16Z"/></g></svg>