<svg id="Layer_1" data-name="Layer 1" xmlns="http://www.w3.org/2000/svg" viewBox="0 0 242 114"><defs><style>.cls-1{font-size:18.47px;fill:#333;font-family:Montserrat-Bold, Montserrat;font-weight:700;}.cls-2{letter-spacing:-0.01em;}.cls-3{letter-spacing:-0.02em;}.cls-4{letter-spacing:0em;}.cls-5{letter-spacing:0.01em;}.cls-6{letter-spacing:0em;}.cls-7{letter-spacing:-0.02em;}.cls-8{letter-spacing:-0.01em;}.cls-9{letter-spacing:0.01em;}.cls-10{fill:#a7a9ac;}.cls-11{fill:#d1d3d4;}.cls-12{fill:#e6e7e8;}</style></defs><title>SP Small</title><text class="cls-1" transform="translate(93.14 51.33)"><tspan class="cls-2">S</tspan><tspan class="cls-3" x="11.6" y="0">y</tspan><tspan class="cls-4" x="22.31" y="0">a</tspan><tspan class="cls-5" x="33.7" y="0">n</tspan><tspan x="46.58" y="0">dan</tspan><tspan class="cls-6" x="83.51" y="0">a</tspan><tspan class="cls-7" x="94.83" y="0">’</tspan><tspan x="99.34" y="0">s</tspan><tspan class="cls-2" x="0" y="22.16">P</tspan><tspan class="cls-8" x="13.33" y="22.16">r</tspan><tspan x="21.13" y="22.16">oje</tspan><tspan class="cls-9" x="50.55" y="22.16">c</tspan><tspan x="61.61" y="22.16">t</tspan></text><path class="cls-10" d="M73.24,60.47V71.2A14.18,14.18,0,0,1,59.07,85.28V71.39A14.22,14.22,0,0,0,73.16,58.88C73.21,59.4,73.24,59.93,73.24,60.47Z"/><path class="cls-10" d="M39.72,71.2V93H53.89V85.28A14.11,14.11,0,0,1,39.72,71.2Z"/><path class="cls-11" d="M53.89,63.92V85.28A14.11,14.11,0,0,1,39.72,71.2V63.92Z"/><path class="cls-12" d="M53.89,21.1V60.18A14.29,14.29,0,0,1,39.72,45.91V35.18A14.17,14.17,0,0,1,50.49,21.51l.6-.13c.21,0,.42-.09.64-.12l.32,0A14.1,14.1,0,0,1,53.89,21.1Z"/><path class="cls-11" d="M73.16,58.88A14.22,14.22,0,0,1,59.07,71.39V46.19A14.31,14.31,0,0,1,73.16,58.88Z"/><path class="cls-11" d="M53.9,46.28v13.9h0a14.19,14.19,0,0,1-12.14-7,14.22,14.22,0,0,1,12.14-6.95Z"/><path class="cls-12" d="M73.24,35.18V57.31a13.64,13.64,0,0,1-.08,1.57A14.31,14.31,0,0,0,59.07,46.19V21.09a13.55,13.55,0,0,1,1.43.08l.34,0,.32,0A14.1,14.1,0,0,1,73.24,35.18Z"/></svg>